<svg width="22" height="22" xmlns="http://www.w3.org/2000/svg"><g class="layer"><g fill="#fff"><path d="M21.48 3.38c.07-.07.13-.15.16-.24a.717.717 0 0 0 0-.58.633.633 0 0 0-.16-.24.633.633 0 0 0-.24-.16.717.717 0 0 0-.58 0c-.09.03-.17.09-.24.16l-9.97 9.97-3.97-3.97a.633.633 0 0 0-.24-.16.717.717 0 0 0-.58 0c-.09.03-.17.09-.24.16-.07.07-.13.15-.16.24a.717.717 0 0 0 0 .58c.03.09.09.17.16.24l4.5 4.5c.07.07.15.13.24.16a.717.717 0 0 0 .58 0c.09-.03.17-.09.24-.16l10.5-10.5z"/><path d="M1.95 11.1c0-1.45.38-2.87 1.1-4.13a8.406 8.406 0 0 1 3.02-3.02c1.26-.72 2.68-1.1 4.13-1.1 1.45 0 2.87.38 4.13 1.1.17.1.37.13.56.08a.81.81 0 0 0 .46-.35c.09-.17.12-.38.07-.57a.735.735 0 0 0-.34-.45 9.716 9.716 0 0 0-6.15-1.23 9.759 9.759 0 0 0-8.4 8.4 9.7 9.7 0 0 0 1.23 6.14 9.795 9.795 0 0 0 4.71 4.14c1.98.82 4.18.96 6.25.41a9.754 9.754 0 0 0 7.23-9.42.75.75 0 0 0-1.5 0c0 2.19-.87 4.29-2.42 5.83a8.217 8.217 0 0 1-5.83 2.42c-2.19 0-4.29-.87-5.83-2.42a8.217 8.217 0 0 1-2.42-5.83z"/></g></g></svg>